<svg width="87" height="24" viewBox="0 0 87 24" fill="none" xmlns="http://www.w3.org/2000/svg">
<path d="M72.9639 13.7627H76.8111L75.3413 7.41669C75.241 7.08294 75.1697 6.74116 75.1282 6.39516C75.0851 6.11182 75.0642 5.82556 75.0657 5.53898C75.0391 6.17988 74.9152 6.81301 74.6983 7.41669L72.9639 13.7627ZM78.8248 21.8945L77.6636 17.6063H71.9276L70.6011 21.8945H63.7811L71.6373 0.36887H79.0857L86.5487 21.9128L78.8248 21.8945Z" fill="#009083"/>
<path fill-rule="evenodd" clip-rule="evenodd" d="M37.9048 17.2094C38.2576 17.1028 38.592 16.9963 38.897 16.875C39.202 16.7538 39.4923 16.6325 39.7348 16.5076L41.1385 21.0714C40.5138 21.3773 39.8722 21.6473 39.2167 21.8798C38.5178 22.1293 37.8049 22.3379 37.0817 22.5045C36.3361 22.6769 35.5817 22.8094 34.8219 22.9013C34.0525 22.9941 33.2782 23.0408 32.5032 23.0409C31.0216 23.0678 29.5463 22.8404 28.1415 22.3685C26.9176 21.9503 25.8096 21.249 24.9079 20.3218C24.1671 19.5454 23.581 18.635 23.1809 17.6393C22.9619 17.2269 22.7882 16.792 22.6627 16.3422C21.7059 12.9994 21.7866 9.44487 22.8942 6.14896C23.2972 4.86737 23.9857 3.69391 24.9079 2.71692C25.8099 1.79078 26.9178 1.09076 28.1415 0.67386C29.5475 0.207058 31.0219 -0.0202527 32.5032 0.00141503C33.2801 -0.00699921 34.0561 0.0544914 34.8219 0.185143C35.5892 0.277522 36.3509 0.411226 37.1038 0.585671C37.8497 0.769399 38.5516 0.967826 39.2387 1.21035C39.8967 1.43654 40.5387 1.70662 41.1605 2.01875L39.7568 6.58256C39.4846 6.44466 39.2049 6.32199 38.919 6.21511C38.614 6.09384 38.2943 5.98728 37.9269 5.88072C37.5594 5.77416 37.192 5.6823 36.8246 5.59044L36.8245 5.59043C36.4571 5.49856 36.0859 5.41772 35.7221 5.35893C35.666 5.34986 35.6102 5.34071 35.5546 5.3316C35.25 5.28165 34.954 5.23314 34.6712 5.20827C34.3679 5.16747 34.0623 5.14661 33.7563 5.14581C33.0647 5.14036 32.3778 5.25858 31.7279 5.49489C31.1469 5.70373 30.6372 6.07327 30.2581 6.56051C29.8287 7.14263 29.527 7.80875 29.3725 8.51538C29.1281 9.49861 29.0047 10.508 29.005 11.5212V11.5653V11.613C29.0036 12.625 29.127 13.6334 29.3725 14.6152C29.5232 15.323 29.8253 15.9899 30.2581 16.57C30.6385 17.0567 31.1477 17.4272 31.7279 17.6393C32.3737 17.8575 33.0528 17.9607 33.7342 17.9443C34.0098 17.9443 34.3148 17.9259 34.6492 17.8818C34.6853 17.8771 34.7215 17.8723 34.758 17.8675C35.0591 17.828 35.3723 17.7869 35.7001 17.7312C36.0676 17.6687 36.435 17.5916 36.8025 17.4997C36.8548 17.4866 36.9074 17.4735 36.9602 17.4604C37.2782 17.3814 37.6023 17.3008 37.9048 17.2094ZM11.7236 12.7117C11.8154 13.0792 11.8926 13.4466 11.9367 13.748C11.9795 14.0301 12.0004 14.3151 11.9992 14.6005C12.0005 14.3139 12.0313 14.0282 12.091 13.748C12.1627 13.3975 12.2547 13.0515 12.3666 12.7117L16.133 0.368869H22.9089L14.4868 21.8945H8.16658L0.449997 0.368869H8.18496L11.7236 12.7117ZM48.0834 15.486H53.4519V8.79097L48.0834 15.486ZM59.842 20.432V24H53.4482V20.432H43.1595L41.9064 15.8535L52.9963 2.44132H59.8787V15.3648H63.7848L62.0872 20.432H59.842Z" fill="#1F1F1F"/>
</svg>
